# xmcd
#
# Track frame offsets:
#	150
#	17784
#	31413
#	44439
#	58584
#	81272
#	97956
#	112746
#	127064
#	138661
#	152792
#	162691
#	178111
#
# Disc length: 2632 seconds
# Revision: 0
# Processed by: cddbd v1.5.2PL0 Copyright (c) Steve Scherf et al.
# Submitted via: dBpowerAMP V12.0
#
DISCID=b10a460d
DTITLE=Nick Charles and Doc Span - All About Sonny Terry and Brownie McGhee
DYEAR=2013
DGENRE=Blues
TTITLE0=I'm A Stranger
TTITLE1=The Golden Inn
TTITLE2=Walk On
TTITLE3=Dirty Mistreater
TTITLE4=Sportin' Life Blues
TTITLE5=Trouble In Mind
TTITLE6=Down By The Riverside
TTITLE7=You Bring Out The Boogie In Me
TTITLE8=Climbin' On Top Of The Hill
TTITLE9=One Scotch,One Bourbon,One Beer
TTITLE10=Brownie Pickin'
TTITLE11=Sonny And Brownie
TTITLE12=Sonny Riffin'
EXTD=
EXTT0=
EXTT1=
EXTT2=
EXTT3=
EXTT4=
EXTT5=
EXTT6=
EXTT7=
EXTT8=
EXTT9=
EXTT10=
EXTT11=
EXTT12=
PLAYORDER=
